# xmcd CD database file
#
# Track frame offsets:
#	182
#	27247
#	45235
#	72602
#	99392
#	116747
#	134587
#	152785
#	174830
#
# Disc length: 2595 seconds
#
# Revision: 0
# Processed by: cddbd v1.5.1PL0 Copyright (c) Steve Scherf et al.
# Submitted via: CDex 1.51
#
DISCID=740a2109
DTITLE=Ismael Quintana - Amor, Vida y Sentimiento
DYEAR=1977
DGENRE=Salsa
TTITLE0=Nunca Jamas
TTITLE1=Mientes
TTITLE2=A Guava No
TTITLE3=Pierdes
TTITLE4=Al Mirarte A Ti
TTITLE5=No Es Preciso
TTITLE6=Oi Una VOz
TTITLE7=Son Pariente
TTITLE8=Rico Merengon
EXTD=YEAR: 1977
EXTT0=
EXTT1=
EXTT2=
EXTT3=
EXTT4=
EXTT5=
EXTT6=
EXTT7=
EXTT8=
PLAYORDER=
